<svg width="177" height="24" viewBox="0 0 177 24" fill="none" xmlns="http://www.w3.org/2000/svg">
<g clip-path="url(#clip0_8102_20075)">
<path d="M0 12C0 5.37258 5.37258 0 12 0C18.6274 0 24 5.37258 24 12C24 18.6274 18.6274 24 12 24C5.37258 24 0 18.6274 0 12Z" fill="#9757D7"/>
<rect y="-6.5" width="24" height="35.9956"/>
</g>
<path d="M12 22C6.47715 22 2 17.5228 2 12H-2C-2 19.732 4.26801 26 12 26V22ZM22 12C22 17.5228 17.5228 22 12 22V26C19.732 26 26 19.732 26 12H22ZM12 2C17.5228 2 22 6.47715 22 12H26C26 4.26801 19.732 -2 12 -2V2ZM12 -2C4.26801 -2 -2 4.26801 -2 12H2C2 6.47715 6.47715 2 12 2V-2Z" fill="#FCFCFD"/>
<g clip-path="url(#clip1_8102_20075)">
<path d="M16 12C16 5.37258 21.3726 0 28 0C34.6274 0 40 5.37258 40 12C40 18.6274 34.6274 24 28 24C21.3726 24 16 18.6274 16 12Z" fill="#EF466F"/>
<rect x="16" y="-6.5" width="24" height="35.9956"/>
</g>
<path d="M28 22C22.4772 22 18 17.5228 18 12H14C14 19.732 20.268 26 28 26V22ZM38 12C38 17.5228 33.5228 22 28 22V26C35.732 26 42 19.732 42 12H38ZM28 2C33.5228 2 38 6.47715 38 12H42C42 4.26801 35.732 -2 28 -2V2ZM28 -2C20.268 -2 14 4.26801 14 12H18C18 6.47715 22.4772 2 28 2V-2Z" fill="#FCFCFD"/>
<g clip-path="url(#clip2_8102_20075)">
<path d="M32 12C32 5.37258 37.3726 0 44 0C50.6274 0 56 5.37258 56 12C56 18.6274 50.6274 24 44 24C37.3726 24 32 18.6274 32 12Z" fill="#45B36B"/>
<rect x="32" y="-6.5" width="24" height="35.9956"/>
</g>
<path d="M44 22C38.4772 22 34 17.5228 34 12H30C30 19.732 36.268 26 44 26V22ZM54 12C54 17.5228 49.5228 22 44 22V26C51.732 26 58 19.732 58 12H54ZM44 2C49.5228 2 54 6.47715 54 12H58C58 4.26801 51.732 -2 44 -2V2ZM44 -2C36.268 -2 30 4.26801 30 12H34C34 6.47715 38.4772 2 44 2V-2Z" fill="#FCFCFD"/>
<defs>
<clipPath id="clip0_8102_20075">
<path d="M0 12C0 5.37258 5.37258 0 12 0C18.6274 0 24 5.37258 24 12C24 18.6274 18.6274 24 12 24C5.37258 24 0 18.6274 0 12Z" fill="white"/>
</clipPath>
<clipPath id="clip1_8102_20075">
<path d="M16 12C16 5.37258 21.3726 0 28 0C34.6274 0 40 5.37258 40 12C40 18.6274 34.6274 24 28 24C21.3726 24 16 18.6274 16 12Z" fill="white"/>
</clipPath>
<clipPath id="clip2_8102_20075">
<path d="M32 12C32 5.37258 37.3726 0 44 0C50.6274 0 56 5.37258 56 12C56 18.6274 50.6274 24 44 24C37.3726 24 32 18.6274 32 12Z" fill="white"/>
</clipPath>
</defs>
</svg>
